<svg width="256" height="256" viewBox="0 0 256 256" fill="none" xmlns="http://www.w3.org/2000/svg">
<g clip-path="url(#clip0_2_4)">
<rect width="256" height="256" fill="white"/>
<rect width="256" height="256" fill="black"/>
<path d="M56.0909 175V81.9091H92.8182C99.8788 81.9091 105.894 83.2576 110.864 85.9545C115.833 88.6212 119.621 92.3333 122.227 97.0909C124.864 101.818 126.182 107.273 126.182 113.455C126.182 119.636 124.848 125.091 122.182 129.818C119.515 134.545 115.652 138.227 110.591 140.864C105.561 143.5 99.4697 144.818 92.3182 144.818H68.9091V129.045H89.1364C92.9242 129.045 96.0455 128.394 98.5 127.091C100.985 125.758 102.833 123.924 104.045 121.591C105.288 119.227 105.909 116.515 105.909 113.455C105.909 110.364 105.288 107.667 104.045 105.364C102.833 103.03 100.985 101.227 98.5 99.9545C96.0152 98.6515 92.8636 98 89.0455 98H75.7727V175H56.0909ZM169.023 176.364C161.962 176.364 155.856 174.864 150.705 171.864C145.583 168.833 141.629 164.621 138.841 159.227C136.053 153.803 134.659 147.515 134.659 140.364C134.659 133.152 136.053 126.848 138.841 121.455C141.629 116.03 145.583 111.818 150.705 108.818C155.856 105.788 161.962 104.273 169.023 104.273C176.083 104.273 182.174 105.788 187.295 108.818C192.447 111.818 196.417 116.03 199.205 121.455C201.992 126.848 203.386 133.152 203.386 140.364C203.386 147.515 201.992 153.803 199.205 159.227C196.417 164.621 192.447 168.833 187.295 171.864C182.174 174.864 176.083 176.364 169.023 176.364ZM169.114 161.364C172.326 161.364 175.008 160.455 177.159 158.636C179.311 156.788 180.932 154.273 182.023 151.091C183.144 147.909 183.705 144.288 183.705 140.227C183.705 136.167 183.144 132.545 182.023 129.364C180.932 126.182 179.311 123.667 177.159 121.818C175.008 119.97 172.326 119.045 169.114 119.045C165.871 119.045 163.144 119.97 160.932 121.818C158.75 123.667 157.098 126.182 155.977 129.364C154.886 132.545 154.341 136.167 154.341 140.227C154.341 144.288 154.886 147.909 155.977 151.091C157.098 154.273 158.75 156.788 160.932 158.636C163.144 160.455 165.871 161.364 169.114 161.364Z" fill="white"/>
</g>
<defs>
<clipPath id="clip0_2_4">
<rect width="256" height="256" fill="white"/>
</clipPath>
</defs>
</svg>
